HIERARCHY
ROOT teapot3
{
	OFFSET 0.000000 0.000000 0.000000
	CHANNELS 6 Xposition Yposition Zposition Yrotation Xrotation Zrotation
	End Site
	{
		OFFSET 0.000000 0.000000 0.000000
	}
}
MOTION
Frames: 105
Frame Time: 0.008333334
2.365490 3.980211 4.191206 26.988650 1.511268 -0.818329 
2.366274 3.980526 4.191217 26.986760 1.511910 -0.856445 
2.367342 3.980412 4.191470 26.982240 1.536435 -0.864868 
2.368126 3.980064 4.192085 26.943420 1.630714 -0.846985 
2.368263 3.980166 4.192691 26.913120 1.677790 -0.875580 
2.368013 3.980438 4.193281 26.909520 1.673768 -0.847015 
2.368033 3.980539 4.193199 26.954710 1.639273 -0.869110 
2.367746 3.980872 4.193351 26.945270 1.605152 -0.905762 
2.367114 3.980598 4.193797 26.984520 1.535974 -0.768585 
2.366927 3.981665 4.193749 26.964330 1.508925 -0.825409 
2.366871 3.981760 4.194000 26.934170 1.540239 -0.811676 
2.366982 3.981898 4.193675 26.987840 1.542763 -0.851929 
2.367002 3.981931 4.193654 26.962410 1.495176 -0.837616 
2.367457 3.982254 4.193999 27.030360 1.447654 -0.844513 
2.367368 3.981533 4.194008 26.988310 1.516369 -0.871735 
2.367069 3.981013 4.194370 26.995800 1.612863 -0.859406 
2.366422 3.980953 4.194771 26.932010 1.531722 -0.739380 
2.366442 3.981283 4.194718 26.899610 1.596582 -0.808289 
2.366224 3.981488 4.194950 26.923150 1.603653 -0.819305 
2.366349 3.981712 4.195282 26.980480 1.577124 -0.848877 
2.366044 3.981854 4.194806 26.918060 1.555730 -0.822662 
2.365957 3.981884 4.194837 26.918880 1.579466 -0.820587 
2.365952 3.981558 4.194854 26.907220 1.615764 -0.799377 
2.366018 3.981211 4.194335 26.892390 1.660988 -0.791473 
2.366509 3.981845 4.194145 26.930660 1.547518 -0.833984 
2.366511 3.981956 4.194291 26.967340 1.507477 -0.832489 
2.366265 3.982488 4.193940 26.954160 1.440503 -0.860718 
2.365716 3.982097 4.193797 26.910790 1.558141 -0.827271 
2.365318 3.981929 4.193714 26.911420 1.526515 -0.805603 
2.365123 3.982028 4.193599 26.888660 1.567585 -0.811432 
2.364905 3.981982 4.193606 26.905910 1.553275 -0.807678 
2.364774 3.981875 4.193837 26.923030 1.526805 -0.773041 
2.364468 3.981886 4.193219 26.917340 1.531966 -0.784912 
2.364293 3.982195 4.193344 26.896310 1.491563 -0.781158 
2.364620 3.982366 4.193021 26.926140 1.521736 -0.778992 
2.364693 3.982085 4.192540 26.918520 1.504600 -0.818939 
2.364582 3.982077 4.192136 26.906600 1.554512 -0.815247 
2.364529 3.982047 4.191768 26.891300 1.556806 -0.810638 
2.364221 3.981651 4.190749 26.877560 1.487231 -0.785767 
2.364388 3.982096 4.190541 26.859950 1.456726 -0.829956 
2.363885 3.981797 4.190099 26.873590 1.451136 -0.816711 
2.363707 3.982232 4.190089 26.897460 1.419545 -0.881653 
2.362536 3.981823 4.189996 26.808770 1.503358 -0.804596 
2.362557 3.981900 4.189651 26.894630 1.458139 -0.811554 
2.361578 3.981578 4.190171 26.903250 1.432932 -0.762512 
2.360881 3.981460 4.190045 26.892880 1.393977 -0.739105 
2.360584 3.981424 4.190096 26.898940 1.418776 -0.757019 
2.360398 3.981693 4.190651 26.876850 1.427294 -0.741425 
2.360696 3.981364 4.190982 26.863560 1.404375 -0.754700 
2.361096 3.981627 4.191463 26.903520 1.433188 -0.752991 
2.361018 3.981657 4.191831 26.876220 1.468437 -0.764923 
2.361193 3.981494 4.191941 26.873050 1.446337 -0.744843 
2.361548 3.981728 4.192276 26.871640 1.467758 -0.777741 
2.361757 3.981667 4.192413 26.887910 1.428321 -0.755096 
2.361670 3.981695 4.192277 26.872580 1.445666 -0.772186 
2.361661 3.981816 4.192343 26.879420 1.432297 -0.758972 
2.361381 3.981442 4.192097 26.852640 1.435747 -0.765930 
2.361255 3.981667 4.191969 26.886200 1.464074 -0.785431 
2.361318 3.981941 4.191443 26.921470 1.383330 -0.810303 
2.361343 3.981699 4.191128 26.898060 1.394869 -0.750305 
2.361298 3.981595 4.190540 26.892310 1.449203 -0.754517 
2.361222 3.981618 4.190350 26.898630 1.419340 -0.766571 
2.361132 3.981653 4.189929 26.903310 1.400764 -0.770630 
2.360743 3.981591 4.189456 26.902060 1.389414 -0.780884 
2.360484 3.981584 4.189511 26.897950 1.390464 -0.794312 
2.360462 3.981763 4.189265 26.934510 1.351844 -0.804657 
2.360181 3.981670 4.189581 26.932290 1.353379 -0.781464 
2.360001 3.982003 4.189719 26.939330 1.364220 -0.793060 
2.359990 3.981920 4.190133 26.905890 1.389494 -0.783508 
2.359788 3.981802 4.190419 26.920110 1.382969 -0.775269 
2.359777 3.981906 4.190839 26.917110 1.397755 -0.779938 
2.359784 3.982086 4.191265 26.917800 1.395739 -0.782684 
2.359857 3.981888 4.191626 26.905760 1.377119 -0.758575 
2.359907 3.981983 4.191735 26.893770 1.404330 -0.774353 
2.359750 3.982209 4.192025 26.904050 1.419496 -0.777100 
2.359638 3.982060 4.192181 26.912960 1.406784 -0.772339 
2.359506 3.982159 4.192117 26.893100 1.416074 -0.784393 
2.359365 3.982008 4.192130 26.890020 1.400176 -0.766510 
2.358991 3.981997 4.192489 26.905540 1.396466 -0.747955 
2.358598 3.982059 4.192582 26.907200 1.386216 -0.761658 
2.358280 3.982116 4.192678 26.907530 1.377023 -0.743835 
2.358223 3.982142 4.193027 26.908100 1.360636 -0.741852 
2.357965 3.982287 4.193304 26.919910 1.370435 -0.760895 
2.357613 3.982231 4.193554 26.905220 1.352566 -0.765228 
2.357330 3.982438 4.193817 26.893460 1.363966 -0.792999 
2.357197 3.982401 4.193933 26.904990 1.353345 -0.773132 
2.357188 3.982246 4.193655 26.897900 1.364653 -0.769653 
2.357031 3.982224 4.193390 26.894170 1.361127 -0.755249 
2.356841 3.982283 4.193089 26.914020 1.333506 -0.722015 
2.356443 3.982220 4.192466 26.881360 1.373214 -0.726837 
2.355985 3.982291 4.191865 26.889270 1.353135 -0.719147 
2.355584 3.982159 4.191052 26.881440 1.348269 -0.696777 
2.355313 3.982184 4.190213 26.873650 1.389463 -0.710907 
2.355463 3.982047 4.188896 26.936620 1.328497 -0.700317 
2.355270 3.981940 4.188515 26.919180 1.332119 -0.698059 
2.355340 3.981956 4.187994 26.906170 1.321241 -0.685638 
2.355282 3.981930 4.187689 26.908940 1.318693 -0.691132 
2.355197 3.981991 4.187275 26.918950 1.298065 -0.691193 
2.355178 3.981898 4.187350 26.918880 1.294994 -0.690949 
2.355282 3.982023 4.187581 26.917960 1.303978 -0.701325 
2.354727 3.982005 4.187958 26.922400 1.300025 -0.686890 
2.354265 3.981907 4.188416 26.928150 1.304758 -0.673218 
2.353450 3.981729 4.189142 26.922640 1.305774 -0.667603 
2.352931 3.981767 4.189806 26.918250 1.333089 -0.659729 
2.352237 3.981617 4.190661 26.917810 1.338157 -0.659332 
